<svg version="1.1" id="Layer_1" xmlns="http://www.w3.org/2000/svg" xmlns:xlink="http://www.w3.org/1999/xlink" x="0px" y="0px"
	 width="100%" viewBox="0 0 1024 1024" enable-background="new 0 0 1024 1024" xml:space="preserve">
<path fill="#000000" opacity="1.000000" stroke="none" 
	d="
M621.588013,399.655518 
	C609.127319,413.905029 594.972961,425.727966 579.277161,435.689636 
	C574.404297,438.782288 568.907104,436.936951 563.665894,436.895142 
	C562.745728,436.887817 561.827942,436.585083 560.727844,437.064453 
	C564.008484,438.417725 567.289062,439.771027 571.518616,441.515747 
	C561.088379,449.008698 550.578979,454.017822 538.513428,457.151764 
	C540.090759,458.464447 542.395020,457.760620 543.334106,460.035339 
	C534.293396,462.932343 525.022095,464.230469 515.342957,465.071503 
	C529.414429,443.972809 546.205200,425.388000 564.554321,408.110321 
	C544.807861,422.578705 528.067749,440.106232 512.825134,459.429932 
	C512.653259,449.673553 514.310181,440.397186 516.047363,430.458923 
	C518.943176,432.800446 517.837769,435.511993 518.514709,438.304230 
	C521.363525,430.037842 523.426025,421.955719 527.531433,414.308868 
	C530.015259,416.412659 529.491028,419.047211 530.743408,421.197510 
	C532.057007,401.608124 546.627380,391.516205 559.465454,380.360138 
	C565.307434,375.283539 571.902954,371.090851 578.723694,367.689362 
	C581.351807,370.014038 579.565369,373.040222 582.000610,375.984924 
	C581.145508,363.036102 590.639038,361.532166 598.971863,359.001190 
	C610.884583,355.382874 622.933960,353.573608 635.382935,356.520050 
	C639.206482,357.425018 640.040283,359.109222 639.693970,362.800171 
	C638.682373,373.581177 634.350769,382.972565 628.556152,391.879578 
	C627.126221,394.077484 625.192871,394.986725 622.724487,395.114471 
	C620.086182,395.251038 617.447449,395.378326 614.067688,395.546539 
	C616.702942,397.670898 620.382690,396.221527 621.588013,399.655518 
z"/>
<path fill="#000000" opacity="1.000000" stroke="none" 
	d="
M471.073273,365.096313 
	C464.631531,369.717804 458.944916,374.812042 451.888916,378.823242 
	C449.441498,372.482819 450.291870,366.154114 448.719147,360.313812 
	C446.586365,352.393829 449.713104,347.691589 456.285889,343.145660 
	C469.972534,333.679504 483.057983,323.332275 496.220093,313.127319 
	C499.760559,310.382294 502.271240,309.895538 506.118530,312.942474 
	C516.298523,321.004669 526.892700,328.545349 537.362183,336.239014 
	C539.038208,337.470673 540.587280,339.099640 543.217285,339.267822 
	C544.300659,336.215759 543.719788,333.209564 543.765991,330.299347 
	C543.815247,327.192566 545.013794,325.700470 548.236938,325.761963 
	C553.732910,325.866791 559.234619,325.907318 564.729004,325.774597 
	C568.163452,325.691620 569.436646,327.081879 569.390503,330.519409 
	C569.251770,340.846893 568.451904,351.283997 569.668823,361.468170 
	C570.437988,367.905304 568.168152,370.877899 563.326172,373.303436 
	C559.657959,375.141022 557.489136,380.596130 553.156677,379.623016 
	C549.569885,378.817413 546.542236,375.371887 543.350769,372.983795 
	C531.080627,363.802399 518.761475,354.682617 506.648041,345.298065 
	C503.214630,342.638123 500.788239,342.242462 497.173096,345.191132 
	C488.790588,352.028259 479.990967,358.353973 471.073273,365.096313 
z"/>
<path fill="#000000" opacity="1.000000" stroke="none" 
	d="
M596.922607,513.118103 
	C564.720215,513.117249 533.005737,513.117249 501.291260,513.117249 
	C501.211761,512.693054 501.132233,512.268860 501.052734,511.844666 
	C505.756805,509.384827 511.416962,509.050964 515.897705,505.857269 
	C515.747742,503.648895 513.756531,503.048920 512.427795,501.986969 
	C506.280457,497.074036 500.688477,491.657837 496.020813,485.275787 
	C494.371765,483.021088 494.227570,481.257935 496.037781,479.074463 
	C498.800903,475.741516 501.401947,472.270447 503.986603,468.794617 
	C505.886200,466.239960 507.733337,466.709106 509.863403,468.495636 
	C511.917511,470.218475 513.715149,471.696198 511.343384,474.603119 
	C508.232605,478.415771 505.388580,482.446045 502.451447,486.354004 
	C504.419556,488.196899 506.173035,487.632355 507.750305,487.635437 
	C529.747986,487.678375 551.747192,487.528870 573.742371,487.767090 
	C578.738953,487.821198 579.974487,485.980621 579.880737,481.359802 
	C579.633911,469.199310 579.866882,457.029816 579.726562,444.865967 
	C579.688171,441.535278 580.736145,439.356049 583.570862,437.417328 
	C589.339600,433.471893 594.796509,429.071045 600.394348,424.874420 
	C601.554260,424.004822 602.428406,422.594818 605.618469,422.882507 
	C605.618469,428.219208 605.635803,433.731232 605.615417,439.243134 
	C605.534180,461.239380 605.431458,483.235565 605.357727,505.231842 
	C605.331604,513.031433 605.358948,513.031555 596.922607,513.118103 
z"/>
<path fill="#000000" opacity="1.000000" stroke="none" 
	d="
M435.712891,502.578796 
	C434.891266,505.531616 434.126801,508.081970 433.492584,510.664307 
	C432.903809,513.061401 431.686707,514.674744 429.009308,514.308167 
	C426.225433,513.927063 422.358154,516.293396 421.249847,511.071899 
	C413.455902,516.748169 405.746094,512.462830 398.228638,511.921967 
	C397.666290,510.221893 398.401398,509.709595 399.065063,509.241241 
	C413.247650,499.231171 420.579224,485.037109 423.562286,468.389587 
	C424.293762,464.307373 426.014069,463.102692 429.976257,462.509125 
	C443.640167,460.462250 457.528015,460.202850 471.068329,457.291321 
	C475.429901,456.353485 478.015137,457.448608 479.892120,461.984650 
	C486.062286,476.895844 494.369812,490.472656 506.712708,501.230927 
	C507.700928,502.092255 508.778748,502.947540 509.037964,504.367279 
	C503.149811,510.513489 493.320923,510.652039 488.090576,504.412170 
	C482.016174,497.165405 476.620697,489.428009 472.758179,480.681122 
	C475.380554,491.198486 480.556763,500.613892 485.314911,509.980469 
	C483.385834,511.859283 481.439331,511.738495 479.692322,511.855530 
	C467.069427,512.700928 454.433960,513.360596 441.812897,514.230225 
	C437.176910,514.549622 435.417053,513.087158 436.401428,508.199432 
	C437.201782,504.225372 437.135559,500.076813 437.483002,495.629669 
	C435.862183,497.839569 436.670990,500.210297 435.712891,502.578796 
z"/>
<path fill="#000000" opacity="1.000000" stroke="none" 
	d="
M460.745636,612.000000 
	C460.734283,598.023499 460.845825,584.545044 460.638214,571.071533 
	C460.574005,566.906738 462.053864,565.473816 466.136566,565.668335 
	C478.412903,566.252991 490.784576,564.481323 502.984863,566.602783 
	C523.446777,570.160767 537.163940,586.481384 537.077698,606.668762 
	C536.991394,626.861816 522.828247,643.663879 502.567413,647.222595 
	C489.864807,649.453796 477.007690,647.920837 464.223267,648.211792 
	C460.799652,648.289673 460.733124,645.912170 460.736511,643.446045 
	C460.750671,633.130676 460.744385,622.815369 460.745636,612.000000 
M477.254852,598.501892 
	C477.260376,608.477051 477.339722,618.452942 477.228485,628.426819 
	C477.193146,631.599304 478.306946,632.984497 481.571320,632.869812 
	C486.719788,632.688843 491.886536,632.936340 497.028076,632.667847 
	C509.317017,632.026184 519.062561,622.065796 519.748413,609.679932 
	C520.576050,594.731567 513.008911,583.515259 500.016968,581.641296 
	C493.655487,580.723755 487.079224,581.299805 480.600342,581.189575 
	C477.945282,581.144470 477.211121,582.685913 477.240570,585.034424 
	C477.292694,589.190063 477.255524,593.346802 477.254852,598.501892 
z"/>
<path fill="#000000" opacity="1.000000" stroke="none" 
	d="
M409.378906,616.011658 
	C404.006042,635.883606 388.470123,648.028931 368.423676,648.259460 
	C358.600800,648.372437 348.774689,648.206787 338.951752,648.316711 
	C335.936218,648.350403 334.183777,647.491333 334.144226,644.195312 
	C333.870575,621.388489 334.191345,598.587952 334.832855,575.790771 
	C334.840332,575.523865 335.172119,575.266113 335.356689,575.006958 
	C343.246399,577.829529 350.330597,587.405945 350.339447,595.250610 
	C350.351654,606.073853 350.508118,616.899719 350.308502,627.719055 
	C350.235626,631.669434 351.594360,633.116211 355.500031,632.868958 
	C362.282288,632.439514 369.148560,633.597656 375.856140,631.664429 
	C387.567078,628.289246 395.029999,616.599365 393.594696,603.791565 
	C392.178864,591.157837 382.038574,581.666016 369.554901,581.305481 
	C367.724426,581.252625 365.832855,580.960388 364.069916,581.299988 
	C351.071381,583.804199 344.216949,574.647339 336.445129,567.448059 
	C336.751373,566.256226 337.242828,565.834167 337.973114,565.842834 
	C350.769104,565.994568 363.627716,564.579224 376.347565,566.648254 
	C400.022064,570.498901 414.405640,591.941956 409.378906,616.011658 
z"/>
<path fill="#000000" opacity="1.000000" stroke="none" 
	d="
M656.660400,631.704224 
	C661.392761,625.716064 660.424377,620.780701 653.948486,617.841797 
	C650.638000,616.339417 647.039551,615.452087 643.539246,614.392578 
	C639.877502,613.284241 636.131104,612.442627 632.502502,611.240417 
	C620.355042,607.215881 614.047974,598.891296 614.926697,588.245972 
	C615.947815,575.875183 623.734436,566.973267 636.014587,565.003479 
	C648.290833,563.034302 659.840393,565.371033 670.426331,572.160828 
	C673.404724,574.071167 674.066467,575.777893 671.958069,578.972229 
	C666.591309,587.102966 666.742676,587.174011 658.104248,582.871948 
	C652.632446,580.146973 646.855896,578.770386 640.710022,579.275391 
	C635.639771,579.691956 632.026855,582.567566 631.560913,586.962463 
	C631.058289,591.702576 633.943542,594.354431 637.991272,595.927429 
	C646.064209,599.064941 654.762695,600.243774 662.697754,603.854370 
	C675.957825,609.888000 680.466553,625.089172 672.584106,637.385437 
	C670.178772,641.137817 666.947754,643.892761 662.927734,645.808533 
	C648.628601,652.622864 626.728882,649.241516 615.034058,638.540649 
	C612.456360,636.182068 611.554810,634.177673 614.568176,631.636536 
	C617.091980,629.508362 618.467163,626.246399 621.469421,624.433472 
	C632.139343,631.648071 642.745178,638.954712 656.660400,631.704224 
z"/>
<path fill="#000000" opacity="1.000000" stroke="none" 
	d="
M451.265656,410.930725 
	C451.936432,416.834991 452.719971,422.274780 453.166077,427.742126 
	C453.420380,430.859100 454.532318,432.208008 457.815033,432.969025 
	C466.891479,435.073029 473.167511,440.455261 475.652679,449.865479 
	C476.503906,453.088654 475.775116,454.686035 472.541168,455.074768 
	C458.174377,456.801636 443.803925,458.498230 429.436035,460.215698 
	C425.845276,460.644928 424.814056,459.368866 425.387512,455.638611 
	C426.820038,446.320099 430.632721,438.798126 439.605072,434.795624 
	C442.242523,433.619049 442.778168,431.945282 442.466125,429.267365 
	C438.135406,392.098663 433.896912,354.919189 429.598358,317.746704 
	C429.120667,313.615845 428.336700,309.520844 427.834015,305.392273 
	C427.379761,301.661530 428.463013,298.424438 432.602020,297.953369 
	C436.909515,297.463135 438.848907,300.325195 439.310028,304.326569 
	C441.938568,327.134979 444.598999,349.939819 447.180023,372.753632 
	C448.601746,385.320496 449.889130,397.902588 451.265656,410.930725 
z"/>
<path fill="#000000" opacity="1.000000" stroke="none" 
	d="
M409.045959,417.029053 
	C412.366180,414.571655 414.974091,411.715729 418.456879,410.142029 
	C420.536957,411.770905 420.016388,413.924408 420.025269,415.815887 
	C420.105804,432.965454 420.813385,450.152405 419.920288,467.254425 
	C419.088043,483.190979 410.782867,495.806030 398.445892,505.751556 
	C397.941376,506.158295 397.292847,506.409912 396.677521,506.645050 
	C396.401978,506.750305 396.042542,506.635712 395.566681,506.613739 
	C394.099396,504.785767 394.722321,502.548584 394.717529,500.490479 
	C394.665924,478.344818 394.801788,456.197815 394.582367,434.054230 
	C394.537994,429.577393 395.726227,426.477905 399.541534,424.087433 
	C402.775208,422.061432 405.701416,419.544769 409.045959,417.029053 
z"/>
<path fill="#000000" opacity="1.000000" stroke="none" 
	d="
M361.878357,415.788239 
	C376.825867,404.157166 391.668335,392.878632 406.491547,381.574829 
	C412.847046,376.728271 419.146149,371.807648 425.508636,366.970337 
	C426.927856,365.891357 428.191528,364.427277 430.528595,364.405701 
	C431.815521,366.282104 432.114716,368.540466 432.336487,370.824829 
	C432.690094,374.466858 432.419281,378.311127 433.519928,381.711456 
	C436.394226,390.591064 432.930237,395.746460 425.320740,400.216156 
	C418.185120,404.407471 411.797760,409.906464 405.241516,415.035034 
	C402.300293,417.335876 399.470917,417.887329 395.650208,417.650543 
	C386.025543,417.054138 376.341919,417.452759 366.684174,417.304932 
	C365.041077,417.279785 362.964813,418.299500 361.878357,415.788239 
z"/>
<path fill="#000000" opacity="1.000000" stroke="none" 
	d="
M424.834412,585.000610 
	C424.849060,579.842834 424.945801,575.183167 424.851196,570.527405 
	C424.785065,567.271362 425.874756,565.648865 429.452362,565.690430 
	C442.920990,565.847046 441.161865,564.510071 441.205353,576.873169 
	C441.281433,598.499573 441.114502,620.127747 441.351349,641.751953 
	C441.405823,646.726257 439.969421,648.517029 434.856415,648.342407 
	C423.816925,647.965637 424.849152,649.148132 424.837616,638.402649 
	C424.818695,620.768616 424.833984,603.134521 424.834412,585.000610 
z"/>
<path fill="#000000" opacity="1.000000" stroke="none" 
	d="
M551.050171,596.000000 
	C551.052917,587.352112 551.142151,579.202942 551.016907,571.057007 
	C550.961182,567.434753 551.912354,565.569946 556.065063,565.661072 
	C569.328918,565.952271 567.252930,564.397583 567.319336,576.693481 
	C567.437012,598.476013 567.217834,620.261108 567.446045,642.041931 
	C567.496704,646.887085 565.940186,648.394836 561.189209,648.299377 
	C551.055054,648.095581 551.004517,648.302917 550.989990,638.403687 
	C550.969482,624.435852 551.025879,610.467896 551.050171,596.000000 
z"/>
<path fill="#000000" opacity="1.000000" stroke="none" 
	d="
M332.256927,686.617554 
	C332.231506,690.857666 332.198242,694.681213 332.188812,698.504700 
	C332.182709,700.988281 330.925232,702.120789 328.481018,702.131592 
	C325.985199,702.142639 324.830750,700.895935 324.823792,698.459900 
	C324.798584,689.648926 324.760223,680.837952 324.751862,672.026978 
	C324.750366,670.463440 324.976501,668.896057 326.989197,668.761902 
	C329.552216,668.591003 332.320282,667.576721 334.217621,670.487000 
	C336.637695,674.199097 339.156860,677.846619 341.810089,681.784363 
	C345.383942,678.736572 347.194336,675.155640 349.168304,671.792297 
	C350.965149,668.730835 353.296783,667.688599 356.621094,668.336365 
	C360.370850,669.067017 359.235474,672.082581 359.266602,674.345398 
	C359.371796,681.991394 359.251099,689.640259 359.289276,697.287659 
	C359.303131,700.060425 358.964081,702.282837 355.355804,702.180359 
	C351.872284,702.081421 351.950653,699.634460 351.924042,697.281006 
	C351.869781,692.486206 351.907806,687.690308 351.907806,682.031982 
	C347.540985,685.884277 346.226685,691.072754 342.062317,694.277344 
	C337.811035,691.225037 336.683502,685.891663 332.961151,682.548035 
	C331.701599,683.575928 332.542633,685.007446 332.256927,686.617554 
z"/>
<path fill="#000000" opacity="1.000000" stroke="none" 
	d="
M726.556274,696.456665 
	C722.810425,691.781616 719.288940,687.387573 715.767456,682.993530 
	C715.295288,683.060486 714.823181,683.127441 714.351074,683.194397 
	C714.351074,687.662109 714.397766,692.130432 714.332275,696.597168 
	C714.297241,698.987793 714.983704,701.885742 711.036377,702.000366 
	C707.042786,702.116211 707.037964,699.408752 707.020508,696.603455 
	C706.972900,688.947937 706.846375,681.292542 706.864197,673.637329 
	C706.868530,671.776184 706.230469,669.364624 709.019104,668.729492 
	C711.401001,668.187073 713.601196,668.414978 715.292236,670.600464 
	C719.262207,675.731262 723.313965,680.798889 727.347961,685.879883 
	C727.824951,686.480713 728.397827,687.005493 729.672119,688.355957 
	C729.672119,682.773499 729.690491,678.179138 729.664917,673.585083 
	C729.650269,670.947632 729.639343,668.529236 733.434265,668.635071 
	C736.821899,668.729614 737.040649,670.857971 737.039368,673.360779 
	C737.035339,681.182739 737.079895,689.005005 737.029053,696.826538 
	C737.016602,698.746582 737.459778,701.065308 734.919495,701.880737 
	C732.358765,702.702759 730.401794,701.639282 728.915527,699.503845 
	C728.250977,698.549011 727.495056,697.657776 726.556274,696.456665 
z"/>
<path fill="#000000" opacity="1.000000" stroke="none" 
	d="
M671.182251,692.799438 
	C668.168640,689.032776 665.375610,685.547302 662.008362,681.345276 
	C661.000244,687.228882 661.385498,692.278809 661.334106,697.293091 
	C661.308228,699.814514 661.205322,702.077515 657.775208,701.957764 
	C654.581726,701.846252 654.679077,699.582397 654.672852,697.354919 
	C654.651001,689.530945 654.561035,681.706238 654.651428,673.883606 
	C654.673584,671.965149 653.435974,669.369873 656.696716,668.548706 
	C659.539429,667.832764 661.407654,668.981384 663.078003,671.219727 
	C666.660522,676.020447 670.406616,680.699402 674.099854,685.417236 
	C674.678223,686.155945 675.330322,686.836914 676.828186,688.552246 
	C676.828186,682.605530 676.846436,677.854797 676.821045,673.104431 
	C676.806824,670.450256 677.443909,668.632324 680.705505,668.637451 
	C684.184204,668.642944 684.282959,670.818604 684.278870,673.301331 
	C684.265442,681.458252 684.281311,689.615112 684.260132,697.772034 
	C684.255859,699.437805 684.341797,701.253601 682.227417,701.831055 
	C680.358276,702.341553 678.517151,702.203857 677.203247,700.584351 
	C675.211975,698.129944 673.330750,695.586304 671.182251,692.799438 
z"/>
<path fill="#000000" opacity="1.000000" stroke="none" 
	d="
M262.232605,668.587708 
	C273.371979,669.193848 279.496002,675.416687 279.383698,685.588074 
	C279.277588,695.198975 272.211609,702.188232 261.965820,702.188416 
	C246.335190,702.188721 249.050003,704.175964 248.732651,689.619080 
	C248.623947,684.633240 248.913788,679.630493 248.619690,674.659241 
	C248.364090,670.338745 249.519684,667.993958 254.332565,668.501282 
	C256.797211,668.760986 259.309753,668.565735 262.232605,668.587708 
M271.730774,683.811523 
	C270.162231,677.152588 265.505249,674.124146 258.902100,675.297546 
	C257.111633,675.615662 256.181580,676.434204 256.172363,678.194580 
	C256.143829,683.645203 256.161926,689.096130 256.161926,694.386169 
	C265.791077,697.099976 271.206879,693.531311 271.730774,683.811523 
z"/>
<path fill="#000000" opacity="1.000000" stroke="none" 
	d="
M753.456787,677.477661 
	C749.712646,683.109253 749.436523,687.481140 752.393921,691.600464 
	C755.030396,695.272827 758.760559,696.234436 763.002930,695.570557 
	C765.053345,695.249695 766.948608,694.553101 766.843750,691.862793 
	C766.742493,689.264832 764.910522,689.065369 762.984802,689.075806 
	C760.567688,689.088867 759.182983,688.126038 759.275085,685.533264 
	C759.367310,682.931824 761.003662,682.327576 763.256348,682.096924 
	C773.931763,681.003723 774.149841,681.406738 774.444763,692.339355 
	C774.571350,697.033386 772.569519,699.339966 768.626465,700.972107 
	C760.225037,704.449646 750.767761,702.225647 746.133179,695.520508 
	C741.324524,688.563477 742.149963,678.410706 748.004272,672.508362 
	C753.746765,666.718750 763.789612,665.997375 771.058899,670.850464 
	C771.747070,671.309814 772.443237,671.757324 773.046814,672.152222 
	C771.377563,676.582947 769.314514,677.873352 765.280823,675.688354 
	C761.278076,673.520081 757.219360,674.028259 753.456787,677.477661 
z"/>
<path fill="#000000" opacity="1.000000" stroke="none" 
	d="
M312.355530,671.525513 
	C319.975525,679.212219 321.072571,687.871887 315.669708,695.589050 
	C311.275818,701.865112 301.937195,704.436401 294.700684,701.362732 
	C285.923187,697.634521 281.932800,687.408508 285.742462,678.406189 
	C289.541443,669.429199 299.483063,665.467346 308.592590,669.346558 
	C309.805176,669.862915 310.907227,670.638855 312.355530,671.525513 
M306.412994,676.026978 
	C301.822296,673.496948 297.612793,674.278687 294.312195,678.114380 
	C291.040680,681.916260 291.307007,686.526917 293.270325,690.776001 
	C295.148315,694.840454 298.830994,696.321716 303.230560,695.672546 
	C307.525391,695.038757 309.894958,692.165771 311.063354,688.250427 
	C312.506439,683.414490 310.984863,679.467590 306.412994,676.026978 
z"/>
<path fill="#000000" opacity="1.000000" stroke="none" 
	d="
M375.083252,702.236816 
	C366.788239,702.170654 366.785889,702.170654 366.787567,694.603638 
	C366.789093,687.605957 366.916229,680.605469 366.750610,673.611816 
	C366.668243,670.133545 367.778534,668.313477 371.474579,668.215637 
	C377.473877,668.056885 383.457428,668.005920 389.451263,668.459717 
	C391.733002,668.632446 392.870209,669.488770 392.757019,671.796570 
	C392.652710,673.923950 391.733612,675.240112 389.395935,675.235229 
	C385.564331,675.227295 381.732574,675.292786 377.900909,675.286194 
	C375.794464,675.282532 374.396027,675.867065 374.326111,678.356140 
	C374.248810,681.107178 375.727539,681.787109 378.082001,681.732239 
	C380.413300,681.677917 382.748749,681.665161 385.078918,681.741089 
	C387.487183,681.819519 390.414948,681.179321 390.315826,685.186035 
	C390.225830,688.825073 387.552490,688.276489 385.292786,688.335693 
	C382.795227,688.401245 380.292633,688.429321 377.796356,688.347534 
	C375.190704,688.262024 374.302246,689.505676 374.292694,691.998291 
	C374.283020,694.520935 375.235931,695.689453 377.812836,695.637573 
	C381.809998,695.557190 385.810699,695.652466 389.807922,695.573364 
	C391.993286,695.530090 393.292572,696.154724 393.284027,698.638428 
	C393.276215,700.904907 392.324127,702.109924 390.062866,702.137817 
	C385.231964,702.197571 380.400482,702.207031 375.083252,702.236816 
z"/>
<path fill="#000000" opacity="1.000000" stroke="none" 
	d="
M593.626587,689.505249 
	C592.245911,694.771484 594.383179,696.051514 599.004211,695.378296 
	C602.106018,694.926453 605.312134,695.120117 608.470459,695.148743 
	C610.872253,695.170471 612.122986,696.429810 612.049011,698.928711 
	C611.978699,701.304504 610.566162,702.101196 608.461548,702.110474 
	C602.302368,702.137512 596.142639,702.108215 589.983948,702.173401 
	C587.287292,702.201965 585.966125,700.986755 585.962585,698.296570 
	C585.951294,689.640259 585.931519,680.984009 585.916443,672.327698 
	C585.912781,670.245544 586.588745,668.683411 588.991699,668.675476 
	C596.275635,668.651550 603.559692,668.666809 610.847900,668.666809 
	C612.162964,673.158875 611.615662,675.626465 606.582092,675.253662 
	C603.271729,675.008362 599.926697,675.257874 596.597778,675.227173 
	C594.321960,675.206177 593.270142,676.209290 593.269592,678.535645 
	C593.269043,680.951782 594.511658,681.736145 596.711487,681.709412 
	C599.707092,681.672913 602.703918,681.727051 605.700195,681.741455 
	C607.763977,681.751404 609.220703,682.325867 609.298096,684.814087 
	C609.382629,687.533142 607.906128,688.104187 605.576843,688.292847 
	C601.656860,688.610229 597.614136,687.329712 593.626587,689.505249 
z"/>
<path fill="#000000" opacity="1.000000" stroke="none" 
	d="
M643.078613,701.175354 
	C641.119873,699.168457 641.347168,695.711060 638.362976,695.294800 
	C634.095520,694.699585 629.747498,694.638306 625.491028,695.485596 
	C624.111145,695.760315 623.658325,697.308899 623.191223,698.552185 
	C621.738464,702.418579 619.055054,702.608765 614.835999,701.232483 
	C617.794922,694.301575 620.546143,687.805359 623.342102,681.328491 
	C624.854004,677.826172 626.293945,674.280579 628.036133,670.893250 
	C629.966492,667.140198 634.986511,666.890991 636.718506,670.621460 
	C641.186157,680.244385 645.300720,690.031372 649.523926,699.766907 
	C649.698486,700.169250 649.546265,700.713379 649.546265,701.250061 
	C647.476562,702.565674 645.438843,702.282471 643.078613,701.175354 
M631.038757,687.796082 
	C632.601501,687.665405 634.296326,688.313232 635.894531,686.872986 
	C635.264160,684.118408 634.407532,681.422974 632.076294,678.554504 
	C631.137695,681.954285 627.280029,684.029480 631.038757,687.796082 
z"/>
<path fill="#000000" opacity="1.000000" stroke="none" 
	d="
M411.972961,681.892456 
	C414.340790,682.804260 416.418610,683.459595 418.326141,684.444702 
	C421.564178,686.117004 423.302826,688.969971 423.103119,692.567322 
	C422.888855,696.426025 421.232300,699.735779 417.371399,701.193726 
	C411.035492,703.586365 404.959747,702.702209 399.284058,699.102600 
	C397.808868,698.167053 396.528259,696.953979 398.174011,695.091431 
	C399.443756,693.654297 400.497955,691.484009 402.988586,693.227722 
	C405.516815,694.997925 408.244202,696.053589 411.384125,695.811890 
	C413.327087,695.662354 415.139374,695.150146 415.461090,692.927856 
	C415.764313,690.833435 414.059265,690.050476 412.476532,689.503174 
	C409.968658,688.635986 407.357758,688.060913 404.865570,687.155457 
	C400.550385,685.587463 397.804413,682.534119 397.972015,677.825989 
	C398.143860,673.000305 400.936737,669.918945 405.586151,668.466309 
	C410.545319,666.916809 415.104279,668.138550 419.524597,670.313599 
	C421.061951,671.070007 422.606415,672.139954 421.181732,674.153992 
	C420.079071,675.712708 419.100830,677.725830 416.452209,676.509216 
	C414.654449,675.683594 412.782501,674.896484 410.859650,674.498291 
	C408.624176,674.035278 406.276093,674.406250 405.624176,677.022156 
	C405.054810,679.306580 407.067963,680.106506 408.779755,680.819214 
	C409.696899,681.201050 410.662567,681.466370 411.972961,681.892456 
z"/>
<path fill="#000000" opacity="1.000000" stroke="none" 
	d="
M538.128662,674.492920 
	C530.913818,676.458130 527.526917,681.229248 528.771912,687.163513 
	C530.019653,693.110474 534.631409,696.481140 540.324707,695.658569 
	C542.205566,695.386902 543.789612,694.502625 545.267883,693.418518 
	C547.681824,691.648254 549.388855,693.080750 550.845276,694.743713 
	C552.683838,696.843079 550.758850,698.056274 549.389832,699.175842 
	C542.546021,704.773071 530.991272,703.619934 525.470093,696.841187 
	C519.427856,689.422668 520.420898,677.562378 527.513123,671.555481 
	C534.866821,665.327087 547.091614,667.002014 551.727844,673.725403 
	C549.878540,677.269653 547.709167,679.073242 543.678650,676.063843 
	C542.317078,675.047363 540.248169,674.978394 538.128662,674.492920 
z"/>
<path fill="#000000" opacity="1.000000" stroke="none" 
	d="
M485.030884,694.155945 
	C489.222931,696.530579 493.071014,696.363159 496.573792,693.728149 
	C499.182129,691.765991 500.976379,692.876343 502.466553,694.904480 
	C504.330811,697.441711 501.820099,698.459412 500.356934,699.532471 
	C493.664581,704.440735 482.923248,703.324890 477.557922,697.275269 
	C471.529388,690.477844 471.536377,679.825806 477.573792,673.089355 
	C483.072205,666.954346 494.176544,665.970886 500.881042,671.033752 
	C502.395721,672.177490 503.976746,673.348267 502.181824,675.451111 
	C500.740875,677.139343 499.433777,678.717773 496.817261,676.866028 
	C489.044678,671.365540 482.226013,676.349792 480.682251,682.433716 
	C479.513367,687.040039 480.910858,690.966431 485.030884,694.155945 
z"/>
<path fill="#000000" opacity="1.000000" stroke="none" 
	d="
M592.043701,565.068237 
	C594.340942,565.094360 596.176514,565.060059 598.002502,565.176086 
	C599.927917,565.298462 601.084961,566.339783 601.140442,568.347473 
	C601.338196,575.502930 601.890808,582.697083 598.222412,589.333740 
	C596.136169,593.107910 593.421082,596.123169 589.208923,597.509766 
	C587.499573,598.072388 585.419250,599.169983 584.329895,597.015198 
	C583.370056,595.116272 583.071899,592.688354 585.077026,591.034912 
	C587.587585,588.964539 589.646484,586.695190 590.177734,583.360229 
	C584.056946,580.677490 582.493042,576.833984 583.987976,568.476685 
	C584.865601,563.570190 588.791321,565.631042 592.043701,565.068237 
z"/>
<path fill="#000000" opacity="1.000000" stroke="none" 
	d="
M426.199402,671.243530 
	C426.780762,668.390198 428.850586,668.402588 430.600067,668.389221 
	C437.412872,668.337036 444.227051,668.447876 451.040527,668.516052 
	C453.138275,668.537048 453.978241,669.767944 453.985168,671.730042 
	C453.991943,673.647400 453.170380,675.353455 451.176239,675.066711 
	C443.849701,674.012939 443.608704,678.600586 443.678040,683.819275 
	C443.735474,688.139954 443.473083,692.464905 443.352417,696.787964 
	C443.283691,699.249878 443.813385,702.104187 439.893524,702.026123 
	C435.879364,701.946228 436.736908,698.901428 436.695251,696.574585 
	C436.597076,691.083923 436.508087,685.585388 436.701019,680.100098 
	C436.829681,676.442078 435.477692,674.962708 431.772766,675.151184 
	C429.293579,675.277283 426.014221,676.007751 426.199402,671.243530 
z"/>
<path fill="#000000" opacity="1.000000" stroke="none" 
	d="
M557.057983,694.811218 
	C557.024170,687.343811 556.972778,680.351685 556.985168,673.359619 
	C556.989441,670.922913 557.188049,668.669373 560.618896,668.643188 
	C564.042725,668.617065 564.256775,670.746216 564.253540,673.268005 
	C564.246582,678.762146 564.513855,684.268616 564.223816,689.746460 
	C563.995789,694.051697 565.843018,695.383423 569.802063,695.134155 
	C572.452332,694.967346 575.126343,695.129211 577.787903,695.205933 
	C580.197205,695.275452 581.385254,696.434692 581.302551,698.985596 
	C581.222595,701.453430 579.773438,702.103455 577.718323,702.115540 
	C572.224609,702.147888 566.730713,702.158691 561.236938,702.146301 
	C556.137451,702.134766 557.391968,698.221313 557.057983,694.811218 
z"/>
<path fill="#000000" opacity="1.000000" stroke="none" 
	d="
M691.783691,687.991089 
	C691.777771,682.494873 691.841553,677.494873 691.746765,672.497986 
	C691.694702,669.755371 692.840881,668.654419 695.587341,668.552368 
	C698.539062,668.442688 699.332214,669.811707 699.310486,672.460327 
	C699.240784,680.957458 699.252808,689.455750 699.305786,697.953186 
	C699.321777,700.518555 698.565796,702.102173 695.658875,702.105286 
	C692.785400,702.108276 691.892212,700.518738 691.880554,697.985535 
	C691.866028,694.819824 691.819763,691.654236 691.783691,687.991089 
z"/>
<path fill="#000000" opacity="1.000000" stroke="none" 
	d="
M466.240936,669.725586 
	C467.380402,679.551086 466.922577,689.008911 466.874023,698.459595 
	C466.862000,700.799255 465.785034,702.162720 463.207062,702.113770 
	C460.591766,702.064148 459.749420,700.612305 459.747772,698.278076 
	C459.741669,689.640503 459.655945,681.002380 459.732330,672.365662 
	C459.776489,667.372070 462.964813,668.392761 466.240936,669.725586 
z"/>
<path fill="#000000" opacity="1.000000" stroke="none" 
	d="
M500.154144,386.966156 
	C500.025574,394.168396 500.025604,394.177490 493.535461,394.189728 
	C491.545166,394.193481 489.552338,394.182129 487.565247,394.084351 
	C486.139038,394.014130 484.846588,393.472748 484.791779,391.826416 
	C484.670471,388.181427 484.677704,384.531464 484.690063,380.883698 
	C484.691589,380.435822 484.936218,379.705597 485.251495,379.584839 
	C489.412811,377.991272 493.780090,378.546448 497.947815,379.135468 
	C501.020447,379.569733 499.855316,382.844391 500.145447,385.004120 
	C500.211121,385.493256 500.155945,385.998596 500.154144,386.966156 
z"/>
<path fill="#000000" opacity="1.000000" stroke="none" 
	d="
M506.408264,378.980530 
	C507.523132,378.885895 508.186188,378.834930 508.847931,378.848145 
	C520.598389,379.082855 519.351379,376.538849 519.366516,390.489319 
	C519.368530,392.352264 518.805054,393.874298 516.699646,393.962280 
	C513.393921,394.100372 510.079681,394.081696 506.769897,394.047974 
	C505.745758,394.037537 504.915710,393.513702 504.367889,392.552399 
	C503.050049,390.239899 504.072784,381.321442 506.408264,378.980530 
z"/>
<path fill="#000000" opacity="1.000000" stroke="none" 
	d="
M519.225220,410.670715 
	C516.732788,412.976654 507.680511,413.899170 505.607422,412.382935 
	C503.129700,410.570770 504.088348,407.812561 504.137146,405.453888 
	C504.189056,402.945007 502.851379,399.270477 505.801910,398.268158 
	C509.651306,396.960480 514.004333,397.308563 518.075989,398.248901 
	C519.352234,398.543640 519.318787,400.079163 519.323669,401.245789 
	C519.336243,404.233917 519.309021,407.222229 519.225220,410.670715 
z"/>
<path fill="#000000" opacity="1.000000" stroke="none" 
	d="
M495.668823,412.944824 
	C483.159180,412.847748 484.781708,414.369720 484.652832,401.285370 
	C484.627838,398.750031 485.789154,397.644440 488.259552,397.757538 
	C488.753906,397.780151 489.251007,397.746033 489.746765,397.734283 
	C500.632629,397.476257 500.825867,397.748322 500.187592,408.549255 
	C500.021393,411.361481 499.072449,412.940430 495.668823,412.944824 
z"/>
<path fill="#000000" opacity="1.000000" stroke="none" 
	d="
M629.628784,407.309814 
	C633.235474,410.424225 637.455200,412.284729 640.492859,416.451050 
	C637.078857,417.971100 633.921021,417.274567 630.894775,417.342712 
	C626.566528,417.440216 622.232605,417.372833 617.903137,417.279572 
	C616.303345,417.245117 614.265503,417.670441 613.538391,415.710999 
	C612.907715,414.011536 614.567505,413.089752 615.571777,412.024231 
	C616.714172,410.812164 617.867126,409.609589 618.987427,408.377380 
	C623.724121,403.167419 623.720276,403.163940 629.628784,407.309814 
z"/>
<path fill="#000000" opacity="1.000000" stroke="none" 
	d="
M590.657837,339.255127 
	C589.108337,336.392151 585.928711,335.791443 584.096741,333.143127 
	C587.774780,330.998779 590.578430,328.108582 592.677002,323.826599 
	C595.554138,327.232269 597.011353,331.348724 601.684998,332.989777 
	C598.355896,336.079346 594.748047,338.224152 593.620300,342.173340 
	C591.374817,342.311920 591.652466,340.420319 590.657837,339.255127 
z"/>
<path fill="#000000" opacity="1.000000" stroke="none" 
	d="
M477.050079,413.231506 
	C473.919739,414.684937 472.902954,417.822327 470.445496,419.941956 
	C468.554199,416.762543 466.692352,413.871185 462.550537,412.485382 
	C466.062836,409.824860 468.689941,407.620850 470.754089,402.862640 
	C472.064209,407.833710 476.620239,408.816132 477.050079,413.231506 
z"/>
<path fill="#000000" opacity="1.000000" stroke="none" 
	d="
M595.574524,293.825714 
	C596.420166,292.486847 597.429138,292.134308 598.024597,293.334564 
	C599.398621,296.104309 601.780273,297.821686 604.662048,299.725891 
	C601.410645,301.826294 598.656067,303.827545 597.307129,307.841370 
	C595.028442,304.700409 593.352234,301.887451 590.098938,300.211395 
	C591.739380,297.755920 594.520691,296.698669 595.574524,293.825714 
z"/>
<path fill="#000000" opacity="1.000000" stroke="none" 
	d="
M570.529785,471.633362 
	C569.273438,473.335052 568.279846,474.818481 567.072083,476.621674 
	C564.292969,474.475189 563.680847,470.511230 559.311157,469.520721 
	C562.483154,466.706879 565.320435,464.937775 566.430054,461.179474 
	C568.916016,464.032654 570.339783,467.112183 573.298035,468.407349 
	C573.362976,470.452515 571.690796,470.577087 570.529785,471.633362 
z"/>
</svg>